<svg xmlns="http://www.w3.org/2000/svg" viewBox="0 0 100 100">
  <rect width="100" height="100" rx="12" fill="#3b82f6"/>
  <g stroke="white" stroke-width="2" fill="none">
    <rect x="10" y="15" width="38" height="38" rx="4"/>
    <line x1="22.7" y1="15" x2="22.7" y2="53"/>
    <line x1="35.3" y1="15" x2="35.3" y2="53"/>
    <line x1="10" y1="27.7" x2="48" y2="27.7"/>
    <line x1="10" y1="40.3" x2="48" y2="40.3"/>
  </g>
  <text x="16.5" y="26" font-size="10" fill="white" font-weight="bold" font-family="sans-serif" text-anchor="middle">5</text>
  <text x="42" y="38" font-size="10" fill="white" font-weight="bold" font-family="sans-serif" text-anchor="middle">9</text>
  <text x="29" y="50" font-size="10" fill="white" font-weight="bold" font-family="sans-serif" text-anchor="middle">1</text>
  <g transform="translate(52, 47)">
    <rect width="38" height="38" rx="4" fill="none" stroke="white" stroke-width="2"/>
    <circle cx="10" cy="10" r="3" fill="white"/>
    <circle cx="19" cy="10" r="3" fill="white"/>
    <circle cx="28" cy="10" r="3" fill="white"/>
    <circle cx="10" cy="19" r="3" fill="white"/>
    <circle cx="19" cy="19" r="4" fill="#ef4444"/>
    <circle cx="28" cy="19" r="3" fill="white"/>
    <circle cx="10" cy="28" r="3" fill="white"/>
    <circle cx="19" cy="28" r="3" fill="white"/>
    <circle cx="28" cy="28" r="3" fill="white"/>
  </g>
</svg>
